<svg width="24" height="24" viewBox="0 0 24 24" fill="none" xmlns="http://www.w3.org/2000/svg">
<path d="M4.88725 13.1146H16.9538L12.5767 17.4917C12.2218 17.8466 12.2218 18.3789 12.5767 18.7338C12.9316 19.0887 13.464 19.0887 13.8189 18.7338L19.7338 12.8189C20.0887 12.464 20.0887 11.9316 19.7338 11.5767L13.8189 5.66174C13.6414 5.48429 13.4048 5.42514 13.1682 5.42514C12.9316 5.42514 12.695 5.48429 12.5176 5.66174C12.1627 6.01663 12.1627 6.54898 12.5176 6.90388L16.8946 11.281H4.88725C4.41405 11.281 4 11.695 4 12.1682C4 12.6414 4.41405 13.1146 4.88725 13.1146Z" fill="#060520"/>
</svg>
